<?xml version="1.0" encoding="UTF-8"?>
<!DOCTYPE svg PUBLIC "-//W3C//DTD SVG 1.1//EN" "http://www.w3.org/Graphics/SVG/1.1/DTD/svg11.dtd">
<svg xmlns="http://www.w3.org/2000/svg" version="1.1" width="512px" height="512px" style="shape-rendering:geometricPrecision; text-rendering:geometricPrecision; image-rendering:optimizeQuality; fill-rule:evenodd; clip-rule:evenodd" xmlns:xlink="http://www.w3.org/1999/xlink">
<g><path style="opacity:0.988" fill="#0b0c36" d="M 161.5,-0.5 C 165.167,-0.5 168.833,-0.5 172.5,-0.5C 176.6,2.032 178.934,5.69867 179.5,10.5C 179.334,18.1739 179.5,25.8406 180,33.5C 189.035,42.7023 198.202,51.7023 207.5,60.5C 198.683,65.8015 190.85,72.4681 184,80.5C 180.009,85.2865 178.842,90.6198 180.5,96.5C 176.568,101.607 172.401,106.607 168,111.5C 165.888,114.727 164.055,118.06 162.5,121.5C 159.833,123.167 157.167,124.833 154.5,126.5C 156.032,118.904 158.366,111.57 161.5,104.5C 167.997,93.6619 175.997,83.9953 185.5,75.5C 176.181,65.6808 166.681,56.0141 157,46.5C 156,44.5 155,42.5 154,40.5C 153.5,33.8417 153.334,27.175 153.5,20.5C 151.503,11.4608 154.17,4.46078 161.5,-0.5 Z"/></g>
<g><path style="opacity:0.995" fill="#f94558" d="M 233.5,-0.5 C 248.833,-0.5 264.167,-0.5 279.5,-0.5C 297.412,1.48316 315.079,5.14983 332.5,10.5C 333.655,17.6549 333.822,24.9882 333,32.5C 323.833,41.6667 314.667,50.8333 305.5,60C 304.167,60.6667 302.833,60.6667 301.5,60C 290.633,55.2833 279.3,52.45 267.5,51.5C 246.569,47.7494 226.569,50.7494 207.5,60.5C 198.202,51.7023 189.035,42.7023 180,33.5C 179.5,25.8406 179.334,18.1739 179.5,10.5C 197.308,5.27212 215.308,1.60545 233.5,-0.5 Z"/></g>
<g><path style="opacity:0.996" fill="#090b36" d="M 340.5,-0.5 C 344.167,-0.5 347.833,-0.5 351.5,-0.5C 358.246,4.72825 360.912,11.7283 359.5,20.5C 358.903,28.398 358.069,36.398 357,44.5C 346.791,54.3749 336.957,64.5415 327.5,75C 332.298,79.4681 336.798,84.3014 341,89.5C 344.03,94.9164 347.53,99.9164 351.5,104.5C 351.328,105.492 351.662,106.158 352.5,106.5C 349.899,110.771 346.566,114.437 342.5,117.5C 333.754,112.413 324.42,108.58 314.5,106C 296.177,88.0067 274.177,77.84 248.5,75.5C 254.591,70.0599 256.758,63.3933 255,55.5C 253.681,53.5125 251.848,52.3459 249.5,52C 255.491,51.5005 261.491,51.3338 267.5,51.5C 279.3,52.45 290.633,55.2833 301.5,60C 302.833,60.6667 304.167,60.6667 305.5,60C 314.667,50.8333 323.833,41.6667 333,32.5C 333.822,24.9882 333.655,17.6549 332.5,10.5C 333.659,5.68282 336.326,2.01615 340.5,-0.5 Z"/></g>
<g><path style="opacity:0.994" fill="#f94558" d="M 153.5,20.5 C 153.334,27.175 153.5,33.8417 154,40.5C 155,42.5 156,44.5 157,46.5C 166.681,56.0141 176.181,65.6808 185.5,75.5C 175.997,83.9953 167.997,93.6619 161.5,104.5C 140.903,117.097 123.903,133.43 110.5,153.5C 80.662,153.831 50.9953,153.498 21.5,152.5C 48.5,91.5 92.5,47.5 153.5,20.5 Z"/></g>
<g><path style="opacity:0.998" fill="#f94558" d="M 359.5,20.5 C 419.833,48.1667 463.833,92.1667 491.5,152.5C 469.673,153.497 447.673,153.831 425.5,153.5C 438.433,143.734 449.933,132.401 460,119.5C 460.667,116.167 460.667,112.833 460,109.5C 459.632,108.09 458.799,107.09 457.5,106.5C 443.485,120.349 429.319,134.015 415,147.5C 414.333,148.5 414.333,149.5 415,150.5C 416.652,151.399 418.152,152.399 419.5,153.5C 415.818,153.335 412.152,153.501 408.5,154C 403.963,158.369 399.63,162.869 395.5,167.5C 374.5,187.833 353.833,208.5 333.5,229.5C 307.5,254.833 281.833,280.5 256.5,306.5C 230.137,331.862 204.471,357.862 179.5,384.5C 170.807,392.861 162.14,401.194 153.5,409.5C 147.833,415.5 142.167,421.5 136.5,427.5C 132.5,430.833 128.833,434.5 125.5,438.5C 119.187,444.478 112.854,450.478 106.5,456.5C 112.258,461.619 118.258,461.786 124.5,457C 127.036,454.295 129.703,451.795 132.5,449.5C 159.885,484.362 195.552,505.029 239.5,511.5C 237.5,511.5 235.5,511.5 233.5,511.5C 173.459,505.14 121.459,481.474 77.5,440.5C 77.6621,438.473 77.4955,436.473 77,434.5C 68.6317,425.964 60.1317,417.631 51.5,409.5C 38.8977,393.315 28.5644,375.648 20.5,356.5C 36.6316,339.868 52.9649,323.368 69.5,307C 74.9167,306.219 80.2501,306.385 85.5,307.5C 89.5751,320.975 95.2418,333.642 102.5,345.5C 88.5882,360.914 74.0882,375.914 59,390.5C 54.4012,395.686 52.0679,401.686 52,408.5C 69.7017,390.965 87.2017,373.299 104.5,355.5C 114.167,346.5 123.5,337.167 132.5,327.5C 155.5,305.167 178.167,282.5 200.5,259.5C 210.833,249.833 220.833,239.833 230.5,229.5C 239.5,221.167 248.167,212.5 256.5,203.5C 265.167,195.5 273.5,187.167 281.5,178.5C 296.5,164.167 311.167,149.5 325.5,134.5C 331.5,129.167 337.167,123.5 342.5,117.5C 346.566,114.437 349.899,110.771 352.5,106.5C 353.439,105.673 353.105,105.006 351.5,104.5C 347.53,99.9164 344.03,94.9164 341,89.5C 336.798,84.3014 332.298,79.4681 327.5,75C 336.957,64.5415 346.791,54.3749 357,44.5C 358.069,36.398 358.903,28.398 359.5,20.5 Z M 85.5,307.5 C 91.1667,307.5 96.8333,307.5 102.5,307.5C 102.5,319.5 102.5,331.5 102.5,343.5C 102.5,344.167 102.5,344.833 102.5,345.5C 95.2418,333.642 89.5751,320.975 85.5,307.5 Z"/></g>
<g><path style="opacity:1" fill="#4c4e6d" d="M 267.5,51.5 C 261.491,51.3338 255.491,51.5005 249.5,52C 251.848,52.3459 253.681,53.5125 255,55.5C 256.758,63.3933 254.591,70.0599 248.5,75.5C 231.685,93.0658 211.018,101.566 186.5,101C 183.854,100.196 181.854,98.6959 180.5,96.5C 178.842,90.6198 180.009,85.2865 184,80.5C 190.85,72.4681 198.683,65.8015 207.5,60.5C 226.569,50.7494 246.569,47.7494 267.5,51.5 Z"/></g>
<g><path style="opacity:1" fill="#2c2e52" d="M 248.5,75.5 C 274.177,77.84 296.177,88.0067 314.5,106C 324.42,108.58 333.754,112.413 342.5,117.5C 337.167,123.5 331.5,129.167 325.5,134.5C 310.087,123.576 296.587,125.576 285,140.5C 283.803,143.089 282.803,145.756 282,148.5C 281.5,158.494 281.334,168.494 281.5,178.5C 273.5,187.167 265.167,195.5 256.5,203.5C 256.667,176.498 256.5,149.498 256,122.5C 253.09,111.257 245.923,104.424 234.5,102C 208.454,101.073 184.454,107.573 162.5,121.5C 164.055,118.06 165.888,114.727 168,111.5C 172.401,106.607 176.568,101.607 180.5,96.5C 181.854,98.6959 183.854,100.196 186.5,101C 211.018,101.566 231.685,93.0658 248.5,75.5 Z"/></g>
<g><path style="opacity:0.998" fill="#4b4e6d" d="M 256.5,203.5 C 248.167,212.5 239.5,221.167 230.5,229.5C 188.33,229.168 146.33,229.501 104.5,230.5C 102.558,225.944 101.892,220.944 102.5,215.5C 105.589,195.903 112.255,177.57 122.5,160.5C 130.743,146.922 141.41,135.589 154.5,126.5C 157.167,124.833 159.833,123.167 162.5,121.5C 184.454,107.573 208.454,101.073 234.5,102C 245.923,104.424 253.09,111.257 256,122.5C 256.5,149.498 256.667,176.498 256.5,203.5 Z"/></g>
<g><path style="opacity:1" fill="#080c36" d="M 256.5,102.5 C 262.176,102.334 267.843,102.501 273.5,103C 265.606,106.561 260.106,112.395 257,120.5C 256.501,114.509 256.334,108.509 256.5,102.5 Z"/></g>
<g><path style="opacity:1" fill="#cc0226" d="M 425.5,153.5 C 423.5,153.5 421.5,153.5 419.5,153.5C 418.152,152.399 416.652,151.399 415,150.5C 414.333,149.5 414.333,148.5 415,147.5C 429.319,134.015 443.485,120.349 457.5,106.5C 458.799,107.09 459.632,108.09 460,109.5C 460.667,112.833 460.667,116.167 460,119.5C 449.933,132.401 438.433,143.734 425.5,153.5 Z"/></g>
<g><path style="opacity:1" fill="#9899ab" d="M 198.5,127.5 C 213.82,126.068 224.32,132.402 230,146.5C 230.667,159.167 230.667,171.833 230,184.5C 225.107,199.199 214.94,205.699 199.5,204C 189.667,200.833 183.167,194.333 180,184.5C 179.333,171.833 179.333,159.167 180,146.5C 183.352,137.316 189.519,130.982 198.5,127.5 Z"/></g>
<g><path style="opacity:1" fill="#4b4e6d" d="M 325.5,134.5 C 311.167,149.5 296.5,164.167 281.5,178.5C 281.334,168.494 281.5,158.494 282,148.5C 282.803,145.756 283.803,143.089 285,140.5C 296.587,125.576 310.087,123.576 325.5,134.5 Z"/></g>
<g><path style="opacity:0.992" fill="#080b36" d="M 21.5,152.5 C 50.9953,153.498 80.662,153.831 110.5,153.5C 114.828,155.329 118.828,157.662 122.5,160.5C 112.255,177.57 105.589,195.903 102.5,215.5C 97.1667,210.5 91.8333,205.5 86.5,200.5C 83.7715,196.724 81.2715,192.724 79,188.5C 78.338,186.187 77.838,183.854 77.5,181.5C 77.5,180.5 77.5,179.5 77.5,178.5C 55.5,178.5 33.5,178.5 11.5,178.5C 5.36663,177.698 1.36663,174.365 -0.5,168.5C -0.5,166.833 -0.5,165.167 -0.5,163.5C 3.52078,153.796 10.8541,150.13 21.5,152.5 Z"/></g>
<g><path style="opacity:0.992" fill="#090b36" d="M 491.5,152.5 C 499.75,150.913 506.417,153.247 511.5,159.5C 511.5,163.833 511.5,168.167 511.5,172.5C 509.447,176.531 506.113,178.531 501.5,178.5C 479.5,178.5 457.5,178.5 435.5,178.5C 435.737,182.41 434.904,186.077 433,189.5C 430.978,193.003 428.811,196.337 426.5,199.5C 420.833,204.833 415.167,210.167 409.5,215.5C 407.432,199.461 402.432,184.294 394.5,170C 395.252,169.329 395.586,168.496 395.5,167.5C 399.63,162.869 403.963,158.369 408.5,154C 412.152,153.501 415.818,153.335 419.5,153.5C 421.5,153.5 423.5,153.5 425.5,153.5C 447.673,153.831 469.673,153.497 491.5,152.5 Z"/></g>
<g><path style="opacity:0.998" fill="#2f2f52" d="M 395.5,167.5 C 395.586,168.496 395.252,169.329 394.5,170C 402.432,184.294 407.432,199.461 409.5,215.5C 409.923,218.647 410.256,221.814 410.5,225C 410.453,227.295 409.787,229.129 408.5,230.5C 383.575,229.51 358.575,229.177 333.5,229.5C 353.833,208.5 374.5,187.833 395.5,167.5 Z"/></g>
<g><path style="opacity:1" fill="#c83951" d="M 11.5,179.5 C 11.5,179.167 11.5,178.833 11.5,178.5C 33.5,178.5 55.5,178.5 77.5,178.5C 77.5,179.5 77.5,180.5 77.5,181.5C 55.7309,179.528 33.7309,178.861 11.5,179.5 Z"/></g>
<g><path style="opacity:0.995" fill="#f94558" d="M 11.5,179.5 C 33.7309,178.861 55.7309,179.528 77.5,181.5C 77.838,183.854 78.338,186.187 79,188.5C 81.2715,192.724 83.7715,196.724 86.5,200.5C 80.6197,218.324 77.6197,236.657 77.5,255.5C 64.8763,256.289 56.3763,262.623 52,274.5C 51.6068,279.201 51.6068,283.868 52,288.5C 38.5809,302.422 24.7476,315.755 10.5,328.5C 4.33359,307.83 0.666918,286.83 -0.5,265.5C -0.5,258.833 -0.5,252.167 -0.5,245.5C 0.693332,223.008 4.69333,201.008 11.5,179.5 Z"/></g>
<g><path style="opacity:0.996" fill="#f94558" d="M 501.5,178.5 C 505.749,193.756 509.083,209.09 511.5,224.5C 511.5,245.167 511.5,265.833 511.5,286.5C 509.289,300.547 506.289,314.547 502.5,328.5C 488.252,315.755 474.419,302.422 461,288.5C 463.046,268.717 454.213,257.717 434.5,255.5C 434.654,236.424 431.987,217.758 426.5,199.5C 428.811,196.337 430.978,193.003 433,189.5C 434.904,186.077 435.737,182.41 435.5,178.5C 457.5,178.5 479.5,178.5 501.5,178.5 Z"/></g>
<g><path style="opacity:1" fill="#2c2f53" d="M 230.5,229.5 C 220.833,239.833 210.833,249.833 200.5,259.5C 191.42,256.485 182.087,255.151 172.5,255.5C 163.807,255.511 156.141,258.345 149.5,264C 141.129,270.702 134.629,278.868 130,288.5C 128.71,292.73 128.21,297.064 128.5,301.5C 127.913,310.479 129.246,319.146 132.5,327.5C 123.5,337.167 114.167,346.5 104.5,355.5C 104.283,351.295 103.617,347.295 102.5,343.5C 102.5,331.5 102.5,319.5 102.5,307.5C 102.5,298.833 102.5,290.167 102.5,281.5C 97.4889,281.666 92.4889,281.499 87.5,281C 79.2629,278.032 76.0963,272.198 78,263.5C 80.0738,259.923 82.9072,257.256 86.5,255.5C 91.8333,255.5 97.1667,255.5 102.5,255.5C 102.215,247.039 102.882,238.706 104.5,230.5C 146.33,229.501 188.33,229.168 230.5,229.5 Z"/></g>
<g><path style="opacity:0.997" fill="#090b36" d="M 333.5,229.5 C 358.575,229.177 383.575,229.51 408.5,230.5C 409.629,238.79 410.296,247.124 410.5,255.5C 409.507,263.984 409.174,272.651 409.5,281.5C 414.844,281.666 420.177,281.499 425.5,281C 436.595,275.321 438.261,267.654 430.5,258C 428.685,257.243 427.019,256.41 425.5,255.5C 428.5,255.5 431.5,255.5 434.5,255.5C 454.213,257.717 463.046,268.717 461,288.5C 474.419,302.422 488.252,315.755 502.5,328.5C 505.529,331.859 508.529,335.192 511.5,338.5C 511.5,343.167 511.5,347.833 511.5,352.5C 506.104,358.412 499.771,359.746 492.5,356.5C 476.368,339.868 460.035,323.368 443.5,307C 437.984,306.183 432.65,306.349 427.5,307.5C 421.833,307.5 416.167,307.5 410.5,307.5C 410.5,319.833 410.5,332.167 410.5,344.5C 410.343,345.873 410.51,347.207 411,348.5C 426,363.5 441,378.5 456,393.5C 459.32,398.441 461.153,403.774 461.5,409.5C 461.602,440.43 461.435,471.43 461,502.5C 459.386,506.277 456.886,509.277 453.5,511.5C 449.833,511.5 446.167,511.5 442.5,511.5C 439.861,509.691 437.694,507.358 436,504.5C 435.5,482.836 435.333,461.169 435.5,439.5C 435.5,437.833 435.5,436.167 435.5,434.5C 430.003,434.757 425.003,433.257 420.5,430C 414,423.5 407.5,417 401,410.5C 376.895,467.972 334.061,501.639 272.5,511.5C 261.5,511.5 250.5,511.5 239.5,511.5C 195.552,505.029 159.885,484.362 132.5,449.5C 130.416,445.664 128.083,441.997 125.5,438.5C 128.833,434.5 132.5,430.833 136.5,427.5C 160.671,457.772 192.005,476.606 230.5,484C 239.12,485.252 247.787,485.752 256.5,485.5C 256.5,425.833 256.5,366.167 256.5,306.5C 281.833,280.5 307.5,254.833 333.5,229.5 Z M 427.5,307.5 C 423.165,320.532 417.498,332.866 410.5,344.5C 410.5,332.167 410.5,319.833 410.5,307.5C 416.167,307.5 421.833,307.5 427.5,307.5 Z"/></g>
<g><path style="opacity:0.992" fill="#090b36" d="M 77.5,255.5 C 80.5,255.5 83.5,255.5 86.5,255.5C 82.9072,257.256 80.0738,259.923 78,263.5C 76.0963,272.198 79.2629,278.032 87.5,281C 92.4889,281.499 97.4889,281.666 102.5,281.5C 102.5,290.167 102.5,298.833 102.5,307.5C 96.8333,307.5 91.1667,307.5 85.5,307.5C 80.2501,306.385 74.9167,306.219 69.5,307C 52.9649,323.368 36.6316,339.868 20.5,356.5C 10.3079,360.665 3.30794,357.665 -0.5,347.5C -0.5,345.833 -0.5,344.167 -0.5,342.5C 2.34513,337.306 6.0118,332.639 10.5,328.5C 24.7476,315.755 38.5809,302.422 52,288.5C 51.6068,283.868 51.6068,279.201 52,274.5C 56.3763,262.623 64.8763,256.289 77.5,255.5 Z"/></g>
<g><path style="opacity:1" fill="#9798ab" d="M 172.5,255.5 C 176.687,257.025 179.021,260.025 179.5,264.5C 178.521,272.274 175.688,279.274 171,285.5C 166.833,289.667 162.667,293.833 158.5,298C 151.216,304.095 142.882,306.762 133.5,306C 131.313,304.975 129.646,303.475 128.5,301.5C 128.21,297.064 128.71,292.73 130,288.5C 134.629,278.868 141.129,270.702 149.5,264C 156.141,258.345 163.807,255.511 172.5,255.5 Z"/></g>
<g><path style="opacity:1" fill="#4e4f6e" d="M 172.5,255.5 C 182.087,255.151 191.42,256.485 200.5,259.5C 178.167,282.5 155.5,305.167 132.5,327.5C 129.246,319.146 127.913,310.479 128.5,301.5C 129.646,303.475 131.313,304.975 133.5,306C 142.882,306.762 151.216,304.095 158.5,298C 162.667,293.833 166.833,289.667 171,285.5C 175.688,279.274 178.521,272.274 179.5,264.5C 179.021,260.025 176.687,257.025 172.5,255.5 Z"/></g>
<g><path style="opacity:1" fill="#2b2e52" d="M 340.5,255.5 C 348.305,254.381 355.305,256.215 361.5,261C 373.512,271.855 380.679,285.355 383,301.5C 386.996,325.849 382.663,348.516 370,369.5C 351.405,389.208 334.405,387.875 319,365.5C 303.72,334.805 303.72,304.138 319,273.5C 324.173,265.013 331.34,259.013 340.5,255.5 Z"/></g>
<g><path style="opacity:1" fill="#2a2d52" d="M 410.5,255.5 C 415.5,255.5 420.5,255.5 425.5,255.5C 427.019,256.41 428.685,257.243 430.5,258C 438.261,267.654 436.595,275.321 425.5,281C 420.177,281.499 414.844,281.666 409.5,281.5C 409.174,272.651 409.507,263.984 410.5,255.5 Z"/></g>
<g><path style="opacity:0.994" fill="#f84558" d="M 492.5,356.5 C 483.946,375.284 473.613,392.951 461.5,409.5C 461.153,403.774 459.32,398.441 456,393.5C 441,378.5 426,363.5 411,348.5C 410.51,347.207 410.343,345.873 410.5,344.5C 417.498,332.866 423.165,320.532 427.5,307.5C 432.65,306.349 437.984,306.183 443.5,307C 460.035,323.368 476.368,339.868 492.5,356.5 Z"/></g>
<g><path style="opacity:1" fill="#2c2e52" d="M 256.5,306.5 C 256.5,366.167 256.5,425.833 256.5,485.5C 247.787,485.752 239.12,485.252 230.5,484C 192.005,476.606 160.671,457.772 136.5,427.5C 142.167,421.5 147.833,415.5 153.5,409.5C 162.195,433.363 178.529,449.863 202.5,459C 223.152,463.603 232.318,455.436 230,434.5C 221.92,408.92 205.087,392.254 179.5,384.5C 204.471,357.862 230.137,331.862 256.5,306.5 Z"/></g>
<g><path style="opacity:1" fill="#180f37" d="M 102.5,343.5 C 103.617,347.295 104.283,351.295 104.5,355.5C 87.2017,373.299 69.7017,390.965 52,408.5C 52.0679,401.686 54.4012,395.686 59,390.5C 74.0882,375.914 88.5882,360.914 102.5,345.5C 102.5,344.833 102.5,344.167 102.5,343.5 Z"/></g>
<g><path style="opacity:1" fill="#2b2e52" d="M 409.5,365.5 C 418.865,373.698 427.365,382.698 435,392.5C 435.736,404.902 429.902,410.068 417.5,408C 413.367,404.869 409.534,401.369 406,397.5C 407.48,386.913 408.647,376.246 409.5,365.5 Z"/></g>
<g><path style="opacity:1" fill="#4b4e6d" d="M 179.5,384.5 C 205.087,392.254 221.92,408.92 230,434.5C 232.318,455.436 223.152,463.603 202.5,459C 178.529,449.863 162.195,433.363 153.5,409.5C 162.14,401.194 170.807,392.861 179.5,384.5 Z"/></g>
<g><path style="opacity:0.981" fill="#080b36" d="M 51.5,409.5 C 60.1317,417.631 68.6317,425.964 77,434.5C 77.4955,436.473 77.6621,438.473 77.5,440.5C 77.6666,461.169 77.5,481.836 77,502.5C 75.3859,506.277 72.8859,509.277 69.5,511.5C 65.8333,511.5 62.1667,511.5 58.5,511.5C 55.8607,509.691 53.6941,507.358 52,504.5C 51.5,472.835 51.3334,441.168 51.5,409.5 Z"/></g>
<g><path style="opacity:0.985" fill="#f74558" d="M 435.5,439.5 C 391.43,481.204 339.097,505.204 278.5,511.5C 276.5,511.5 274.5,511.5 272.5,511.5C 334.061,501.639 376.895,467.972 401,410.5C 407.5,417 414,423.5 420.5,430C 425.003,433.257 430.003,434.757 435.5,434.5C 435.5,436.167 435.5,437.833 435.5,439.5 Z"/></g>
<g><path style="opacity:1" fill="#cb0226" d="M 125.5,438.5 C 128.083,441.997 130.416,445.664 132.5,449.5C 129.703,451.795 127.036,454.295 124.5,457C 118.258,461.786 112.258,461.619 106.5,456.5C 112.854,450.478 119.187,444.478 125.5,438.5 Z"/></g>
</svg>
